<svg width="31" height="32" viewBox="0 0 31 32" fill="none" xmlns="http://www.w3.org/2000/svg">
<path d="M10.1007 2.77113C10.101 3.31956 9.93867 3.85575 9.63419 4.31189C9.32971 4.76804 8.89679 5.12363 8.39019 5.33371C7.8836 5.54378 7.32608 5.5989 6.78815 5.49208C6.25022 5.38527 5.75606 5.12132 5.36816 4.73362C4.98026 4.34593 4.71605 3.8519 4.60895 3.31403C4.50185 2.77616 4.55667 2.21861 4.76648 1.7119C4.97629 1.20519 5.33166 0.772088 5.78764 0.467367C6.24362 0.162646 6.77973 7.59596e-08 7.32816 0C8.06324 -1.01812e-07 8.76824 0.291911 9.28816 0.811556C9.80808 1.3312 10.1004 2.03605 10.1007 2.77113ZM9.58125 7.15036H5.07507C4.4713 7.15023 3.88483 7.35195 3.40889 7.72344C2.93295 8.09494 2.59487 8.61489 2.4484 9.20062L0.0231174 18.9076C-0.00921846 19.0533 -0.00761174 19.2045 0.0278128 19.3495C0.0632374 19.4945 0.131531 19.6294 0.227413 19.7437C0.343834 19.8904 0.491152 20.0096 0.658879 20.0928C0.826606 20.1761 1.01062 20.2213 1.19782 20.2253C1.40276 20.2221 1.60226 20.1589 1.77164 20.0435C1.94101 19.9281 2.07281 19.7655 2.15071 19.5759L4.40964 11.6741V17.3652L3.06421 30.8181C3.04972 30.9622 3.06562 31.1078 3.11089 31.2454C3.15615 31.383 3.22977 31.5096 3.32699 31.617C3.42421 31.7244 3.54287 31.8102 3.67532 31.8689C3.80776 31.9276 3.95104 31.9578 4.0959 31.9577H4.20389C4.43873 31.9577 4.66616 31.8755 4.84683 31.7255C5.02749 31.5755 5.15004 31.367 5.19327 31.1362L7.32816 19.6752L9.46305 31.1362C9.50628 31.367 9.62882 31.5755 9.80949 31.7255C9.99016 31.8755 10.2176 31.9577 10.4524 31.9577H10.5604C10.7053 31.9578 10.8486 31.9276 10.981 31.8689C11.1134 31.8102 11.2321 31.7244 11.3293 31.617C11.4265 31.5096 11.5002 31.383 11.5454 31.2454C11.5907 31.1078 11.6066 30.9622 11.5921 30.8181L10.2467 17.3652V11.6741L12.5056 19.5759C12.5837 19.7652 12.7156 19.9275 12.885 20.0426C13.0543 20.1578 13.2537 20.2208 13.4585 20.2238C13.6456 20.22 13.8295 20.175 13.9972 20.092C14.165 20.009 14.3123 19.8901 14.4289 19.7437C14.5248 19.6294 14.5931 19.4945 14.6285 19.3495C14.6639 19.2045 14.6655 19.0533 14.6332 18.9076L12.2079 9.20062C12.0615 8.61489 11.7234 8.09494 11.2474 7.72344C10.7715 7.35195 10.185 7.15023 9.58125 7.15036Z" fill="#A7A2A2" fill-opacity="0.69"/>
<path d="M26.4444 2.77113C26.4447 3.31956 26.2823 3.85575 25.9778 4.31189C25.6733 4.76804 25.2404 5.12363 24.7338 5.33371C24.2272 5.54378 23.6697 5.5989 23.1318 5.49208C22.5939 5.38527 22.0997 5.12132 21.7118 4.73362C21.3239 4.34593 21.0597 3.8519 20.9526 3.31403C20.8455 2.77616 20.9003 2.21861 21.1101 1.7119C21.3199 1.20519 21.6753 0.772088 22.1313 0.467367C22.5872 0.162646 23.1234 7.59596e-08 23.6718 0C24.4069 -1.01812e-07 25.1119 0.291911 25.6318 0.811556C26.1517 1.3312 26.444 2.03605 26.4444 2.77113ZM25.9249 7.15036H21.4187C20.8149 7.15023 20.2285 7.35195 19.7525 7.72344C19.2766 8.09494 18.9385 8.61489 18.792 9.20062L16.3667 18.9076C16.3344 19.0533 16.336 19.2045 16.3714 19.3495C16.4069 19.4945 16.4752 19.6294 16.571 19.7437C16.6875 19.8904 16.8348 20.0096 17.0025 20.0928C17.1702 20.1761 17.3542 20.2213 17.5414 20.2253C17.7464 20.2221 17.9459 20.1589 18.1153 20.0435C18.2846 19.9281 18.4164 19.7655 18.4943 19.5759L20.7533 11.6741V17.3652L19.4078 30.8181C19.3934 30.9622 19.4093 31.1078 19.4545 31.2454C19.4998 31.383 19.5734 31.5096 19.6706 31.617C19.7678 31.7244 19.8865 31.8102 20.0189 31.8689C20.1514 31.9276 20.2947 31.9578 20.4395 31.9577H20.5475C20.7824 31.9577 21.0098 31.8755 21.1905 31.7255C21.3711 31.5755 21.4937 31.367 21.5369 31.1362L23.6718 19.6752L25.8067 31.1362C25.8499 31.367 25.9725 31.5755 26.1531 31.7255C26.3338 31.8755 26.5612 31.9577 26.7961 31.9577H26.904C27.0489 31.9578 27.1922 31.9276 27.3246 31.8689C27.4571 31.8102 27.5757 31.7244 27.673 31.617C27.7702 31.5096 27.8438 31.383 27.8891 31.2454C27.9343 31.1078 27.9502 30.9622 27.9357 30.8181L26.5903 17.3652V11.6741L28.8492 19.5759C28.9274 19.7652 29.0593 19.9275 29.2286 20.0426C29.398 20.1578 29.5974 20.2208 29.8021 20.2238C29.9892 20.22 30.1731 20.175 30.3409 20.092C30.5086 20.009 30.656 19.8901 30.7725 19.7437C30.8684 19.6294 30.9367 19.4945 30.9721 19.3495C31.0076 19.2045 31.0092 19.0533 30.9768 18.9076L28.5515 9.20062C28.4051 8.61489 28.067 8.09494 27.5911 7.72344C27.1151 7.35195 26.5286 7.15023 25.9249 7.15036Z" fill="#A7A2A2" fill-opacity="0.69"/>
</svg>
