<svg width="34" height="31" viewBox="0 0 34 31" fill="none" xmlns="http://www.w3.org/2000/svg">
<path d="M33.42 19.1609C34.0194 18.76 34.1804 17.949 33.7795 17.3498L29.2091 10.5167C28.6037 9.61201 27.6782 9.14035 26.7066 9.14035H24.7482C23.6211 9.14035 22.7228 9.82245 22.15 10.7071C22.0927 10.7956 22.4347 10.2746 17.6846 17.3477C17.2826 17.9463 17.4421 18.7574 18.0406 19.1595C18.6389 19.5613 19.4502 19.4022 19.8524 18.8035L21.8105 15.8877L21.8145 29.1326C21.8145 30.034 22.5451 30.7646 23.4465 30.7646C24.3478 30.7646 25.0785 30.034 25.0785 29.1326V21.7884H26.3842V29.1326C26.3842 30.034 27.1149 30.7646 28.0162 30.7646C28.9176 30.7646 29.6482 30.034 29.6482 29.1326C29.6482 15.0562 29.6444 15.97 29.6444 15.864L31.6091 18.8014C32.0104 19.4016 32.8219 19.5612 33.42 19.1609Z" fill="#A7A2A2" fill-opacity="0.69"/>
<path d="M25.7313 7.8755C27.459 7.8755 28.8602 6.47557 28.8602 4.7467C28.8602 3.62022 28.2635 2.63258 27.3689 2.08181C27.5538 1.95108 27.7692 1.83034 28.0237 1.72712C28.1305 1.68386 28.2025 1.5824 28.2079 1.46719C28.2134 1.35186 28.1513 1.24418 28.0489 1.19092C27.5541 0.933929 26.9512 0.928639 26.3822 1.03774C26.4787 0.856926 26.6002 0.672236 26.7564 0.484959C26.8302 0.396317 26.8458 0.272877 26.7963 0.168835C26.7468 0.0646746 26.6414 -0.00116013 26.5259 1.54881e-05C25.3823 0.0130649 24.3335 1.17235 23.9157 1.86561C23.8186 2.02667 23.7457 2.19725 23.6997 2.36925C23.0285 2.94307 22.6023 3.79516 22.6023 4.7467C22.6024 6.47557 24.0036 7.8755 25.7313 7.8755Z" fill="#A7A2A2" fill-opacity="0.69"/>
<path d="M11.8012 10.6326C11.2376 9.77789 10.3408 9.14035 9.24394 9.14035H7.28547C6.16969 9.14035 5.1991 9.76249 4.70181 10.6788C4.64138 10.7658 0.280885 17.2598 0.221869 17.3478C-0.180193 17.9465 -0.0206616 18.7575 0.577847 19.1596C1.17612 19.5614 1.98742 19.4023 2.3896 18.8036L4.34771 15.8878V15.9239L2.57041 23.1702C2.48741 23.5082 2.56441 23.8656 2.7792 24.1394C2.9941 24.4133 3.32281 24.5732 3.67091 24.5732H4.35171V29.1327C4.35171 30.0341 5.08236 30.7647 5.98371 30.7647C6.88506 30.7647 7.6157 30.0341 7.6157 29.1327V24.5732H8.92135V29.1327C8.92135 30.0341 9.652 30.7647 10.5533 30.7647C11.4547 30.7647 12.1853 30.0341 12.1853 29.1327V24.5732H12.8585C13.2066 24.5732 13.5353 24.4133 13.7502 24.1394C13.965 23.8656 14.042 23.5082 13.959 23.1702L12.1816 15.9234L12.1815 15.8761L14.1476 18.8036C14.5498 19.4025 15.3612 19.5613 15.9593 19.1596C16.5579 18.7575 16.7174 17.9465 16.3153 17.3478C11.4928 10.1665 11.8576 10.7183 11.8012 10.6326Z" fill="#A7A2A2" fill-opacity="0.69"/>
<path d="M2.02596 8.83316C2.14093 8.84268 2.25074 8.78449 2.30764 8.68409C3.16713 7.16707 4.51545 7.29568 4.81747 6.7355C4.85909 6.65814 4.89189 6.57843 4.9161 6.49743C5.00816 6.59666 5.13771 6.65497 5.27396 6.65497C5.32781 6.65497 5.38271 6.64603 5.43632 6.6271C5.52684 6.59524 5.60102 6.53882 5.65651 6.46875C6.21646 7.31637 7.17718 7.87561 8.26886 7.87561C9.36042 7.87561 10.3213 7.31637 10.8811 6.46875C10.9366 6.53882 11.0108 6.59524 11.1014 6.6271C11.1551 6.64603 11.2099 6.65497 11.2638 6.65497C11.4 6.65497 11.5296 6.59666 11.6216 6.49743C11.6458 6.57843 11.6785 6.65814 11.7202 6.7355C12.0221 7.29568 13.3705 7.16707 14.23 8.68409C14.2867 8.78449 14.3967 8.84268 14.5116 8.83316C14.6267 8.82364 14.7255 8.74804 14.765 8.63965C15.1564 7.56513 14.442 6.17461 13.9406 5.53883C13.5094 4.99182 12.8456 4.69638 12.2322 5.02685C12.2104 5.0386 12.1903 5.05212 12.1695 5.06482L12.1745 5.05048C12.2642 4.79537 12.1301 4.51592 11.875 4.42622C11.7011 4.36497 11.5176 4.40941 11.389 4.52345C11.2742 2.90109 9.92143 1.61896 8.26898 1.61896C6.61629 1.61896 5.2635 2.90121 5.14888 4.52357C5.02003 4.40953 4.8364 4.36509 4.66288 4.42622C4.40777 4.51592 4.27363 4.79537 4.36333 5.05048L4.36838 5.06482C4.34757 5.05201 4.32735 5.03849 4.30572 5.02685C3.6924 4.69638 3.02853 4.9917 2.59719 5.53883C2.09579 6.17461 1.38148 7.56513 1.77285 8.63965C1.81211 8.74804 1.91098 8.82364 2.02596 8.83316Z" fill="#A7A2A2" fill-opacity="0.69"/>
</svg>
